<svg width="32" height="32" viewBox="0 0 32 32" fill="none" xmlns="http://www.w3.org/2000/svg">
<rect width="32" height="32" fill="white"/>
<path d="M14 10C14.5523 10 15 10.4477 15 11V14.8545C15.0677 14.6382 15.1426 14.416 15.2305 14.2051C15.3781 13.8507 15.5849 13.4496 15.8809 13.123C16.1862 12.7862 16.6539 12.4619 17.2822 12.4619L17.4678 12.4707C18.3653 12.5642 18.799 13.319 18.9346 13.5225C18.9547 13.5527 18.9749 13.5782 18.9912 13.6016C19.1087 13.4886 19.2482 13.308 19.3926 13.0605C19.6975 12.5377 19.921 11.9097 20.0039 11.5781C20.1379 11.0424 20.6811 10.7167 21.2168 10.8506C21.7526 10.9845 22.0782 11.5277 21.9443 12.0635C21.822 12.5525 21.5329 13.3607 21.1201 14.0684C20.9137 14.4221 20.6492 14.7977 20.3223 15.0967C19.9998 15.3915 19.5254 15.6924 18.9229 15.6924C17.8991 15.6922 17.4152 14.8489 17.2705 14.6318C17.2662 14.6254 17.261 14.6194 17.2568 14.6133C17.2019 14.7027 17.1408 14.822 17.0771 14.9746C16.858 15.5007 16.7263 16.1161 16.6113 16.5762C16.4773 17.1118 15.9341 17.4376 15.3984 17.3037C15.2464 17.2657 15.1125 17.193 15 17.0986V17.3848H21.3848C21.937 17.3848 22.3847 17.8326 22.3848 18.3848C22.3847 18.9369 21.9369 19.3847 21.3848 19.3848H14.8203C14.3376 19.3847 13.8745 19.1929 13.5332 18.8516C13.1919 18.5102 13.0001 18.0471 13 17.5645V11C13 10.4478 13.4478 10 14 10Z" fill="#115E59"/>
<path d="M5.09153 29.0002L10.3518 22.7312M18.1417 25.1816C12.2731 25.695 7.09941 21.3538 6.58597 15.4852C6.07254 9.61657 10.4138 4.44289 16.2824 3.92946C22.151 3.41602 27.3247 7.75725 27.8381 13.6259C28.3516 19.4945 24.0103 24.6682 18.1417 25.1816Z" stroke="#0D9488" stroke-width="4" stroke-linecap="round" stroke-linejoin="round"/>
</svg>
